<?xml version="1.0"?>
<svg xmlns="http://www.w3.org/2000/svg" viewBox="0 0 80 80">
    <path style="line-height:normal;text-indent:0;text-align:start;text-decoration-line:none;text-decoration-style:solid;text-decoration-color:#000;text-transform:none;block-progression:tb;isolation:auto;mix-blend-mode:normal" d="M 40 7 C 21.786448 7 7 21.786448 7 40 C 7 58.213552 21.786448 73 40 73 C 58.213552 73 73 58.213552 73 40 C 73 21.786448 58.213552 7 40 7 z M 40 9 C 42.58981 9 45.103849 9.3208526 47.507812 9.9179688 L 40 14.144531 L 32.492188 9.9179688 C 34.896151 9.3208526 37.41019 9 40 9 z M 29.865234 10.701172 A 1.0001 1.0001 0 0 0 30.060547 10.845703 L 39.003906 15.878906 L 39 15.902344 L 39 16.001953 L 39.402344 16.802734 L 40.283203 16.960938 L 40.9375 16.349609 L 41 16.001953 L 41 15.902344 L 40.990234 15.882812 L 49.939453 10.845703 A 1.0001 1.0001 0 0 0 50.134766 10.701172 C 56.001676 12.727834 61.055412 16.475177 64.726562 21.326172 A 1.0001 1.0001 0 0 0 64.65625 21.539062 L 62.519531 32.167969 A 1.0001 1.0001 0 0 0 62.822266 33.101562 L 70.800781 40.443359 A 1.0001 1.0001 0 0 0 70.984375 40.576172 C 70.867762 46.959611 68.829571 52.866405 65.417969 57.746094 A 1.0001 1.0001 0 0 0 65.332031 57.738281 A 1.0001 1.0001 0 0 0 65.177734 57.744141 L 54.408203 58.996094 A 1.0001 1.0001 0 0 0 53.613281 59.572266 L 49.095703 69.427734 A 1.0001 1.0001 0 0 0 49.023438 69.664062 C 46.168191 70.53032 43.13985 71 40 71 C 36.860808 71 33.833238 70.529971 30.978516 69.664062 A 1.0001 1.0001 0 0 0 30.904297 69.427734 L 26.386719 59.572266 A 1.0001 1.0001 0 0 0 25.591797 58.996094 L 14.822266 57.744141 A 1.0001 1.0001 0 0 0 14.722656 57.738281 A 1.0001 1.0001 0 0 0 14.582031 57.748047 C 11.170229 52.868605 9.1326298 46.961384 9.015625 40.578125 A 1.0001 1.0001 0 0 0 9.2011719 40.443359 L 16.808594 33.441406 L 17.039062 33.572266 L 17.134766 33.605469 L 18.023438 33.492188 L 18.464844 32.710938 L 18.103516 31.890625 L 17.796875 31.716797 L 17.703125 31.683594 L 17.392578 31.724609 L 15.34375 21.539062 A 1.0001 1.0001 0 0 0 15.275391 21.326172 C 18.946483 16.475645 23.998711 12.7277 29.865234 10.701172 z M 50.761719 14.263672 A 1 1 0 0 0 49.904297 14.863281 A 1 1 0 0 0 50.419922 16.179688 A 1 1 0 0 0 51.736328 15.664062 A 1 1 0 0 0 51.220703 14.347656 A 1 1 0 0 0 50.861328 14.263672 A 1 1 0 0 0 50.761719 14.263672 z M 28.835938 14.404297 A 1 1 0 0 0 28.447266 14.492188 A 1 1 0 0 0 27.949219 15.816406 A 1 1 0 0 0 29.273438 16.314453 A 1 1 0 0 0 29.771484 14.990234 A 1 1 0 0 0 28.835938 14.404297 z M 55.472656 16.845703 A 1 1 0 0 0 54.615234 17.273438 A 1 1 0 0 0 54.863281 18.666016 A 1 1 0 0 0 56.255859 18.416016 A 1 1 0 0 0 56.007812 17.025391 A 1 1 0 0 0 55.472656 16.845703 z M 24.253906 17.050781 A 1 1 0 0 0 23.693359 17.236328 A 1 1 0 0 0 23.462891 18.632812 A 1 1 0 0 0 24.859375 18.863281 A 1 1 0 0 0 25.089844 17.466797 A 1 1 0 0 0 24.253906 17.050781 z M 39.716797 19.042969 L 39.0625 19.654297 L 39 20.001953 L 39 20.101562 L 39.402344 20.902344 L 40.283203 21.060547 L 40.9375 20.449219 L 41 20.101562 L 41 20.001953 L 40.597656 19.201172 L 39.716797 19.042969 z M 59.464844 20.28125 A 1 1 0 0 0 59.394531 20.283203 A 1 1 0 0 0 58.767578 20.560547 A 1 1 0 0 0 58.740234 21.974609 A 1 1 0 0 0 60.154297 22.001953 A 1 1 0 0 0 60.181641 20.587891 A 1 1 0 0 0 59.464844 20.28125 z M 20.279297 20.539062 A 1 1 0 0 0 19.566406 20.855469 A 1 1 0 0 0 19.613281 22.267578 A 1 1 0 0 0 21.027344 22.222656 A 1 1 0 0 0 20.980469 20.808594 A 1 1 0 0 0 20.279297 20.539062 z M 39.716797 23.142578 L 39.0625 23.755859 L 39 24.101562 L 39 24.201172 L 39.402344 25.003906 L 40.283203 25.160156 L 40.9375 24.548828 L 41 24.201172 L 41 24.101562 L 40.597656 23.300781 L 39.716797 23.142578 z M 13.712891 23.574219 L 15.410156 32.009766 L 9.0800781 37.835938 C 9.4395509 32.617205 11.090065 27.761747 13.712891 23.574219 z M 66.287109 23.574219 C 68.909935 27.761747 70.560449 32.617205 70.919922 37.835938 L 64.589844 32.009766 L 66.287109 23.574219 z M 40.027344 26.818359 A 1.0001 1.0001 0 0 0 39.412109 27.009766 L 27.595703 35.59375 A 1.0001 1.0001 0 0 0 27.232422 36.710938 L 31.595703 50.140625 L 31.535156 50.220703 L 31.371094 51.101562 L 31.978516 51.759766 L 32.871094 51.666016 L 33.128906 51.427734 L 33.189453 51.347656 L 33.199219 51.292969 L 46.789062 51.292969 L 47.568359 51.679688 L 48.367188 51.277344 L 48.523438 50.394531 L 48.400391 50.150391 L 52.609375 37.199219 L 52.847656 37.158203 L 52.941406 37.125 L 53.5625 36.478516 L 53.416016 35.595703 L 52.621094 35.183594 L 52.273438 35.240234 L 52.179688 35.273438 L 52.089844 35.365234 L 40.587891 27.009766 A 1.0001 1.0001 0 0 0 40.027344 26.818359 z M 40 29.054688 L 50.640625 36.783203 L 46.576172 49.292969 L 33.423828 49.292969 L 29.359375 36.783203 L 40 29.054688 z M 60.349609 32.445312 L 60.001953 32.501953 L 59.908203 32.535156 L 59.287109 33.181641 L 59.433594 34.064453 L 60.228516 34.478516 L 60.576172 34.419922 L 60.669922 34.386719 L 61.291016 33.742188 L 61.146484 32.857422 L 60.349609 32.445312 z M 21.570312 33.042969 L 20.681641 33.15625 L 20.240234 33.935547 L 20.601562 34.755859 L 20.908203 34.929688 L 21.001953 34.962891 L 21.890625 34.849609 L 22.332031 34.070312 L 21.972656 33.25 L 21.666016 33.076172 L 21.570312 33.042969 z M 56.486328 33.814453 L 56.138672 33.871094 L 56.042969 33.904297 L 55.421875 34.550781 L 55.568359 35.433594 L 56.363281 35.847656 L 56.710938 35.789062 L 56.806641 35.755859 L 57.427734 35.109375 L 57.28125 34.226562 L 56.486328 33.814453 z M 25.439453 34.400391 L 24.550781 34.513672 L 24.109375 35.294922 L 24.470703 36.113281 L 24.777344 36.287109 L 24.871094 36.320312 L 25.759766 36.207031 L 26.201172 35.427734 L 25.839844 34.607422 L 25.533203 34.433594 L 25.439453 34.400391 z M 66.830078 42.189453 A 1 1 0 0 0 66.759766 42.191406 A 1 1 0 0 0 65.818359 43.072266 A 1 1 0 0 0 66.693359 44.183594 A 1 1 0 0 0 67.804688 43.308594 A 1 1 0 0 0 66.929688 42.197266 A 1 1 0 0 0 66.830078 42.189453 z M 13.183594 42.335938 A 1 1 0 0 0 13.083984 42.34375 A 1 1 0 0 0 12.216797 43.458984 A 1 1 0 0 0 13.332031 44.328125 A 1 1 0 0 0 14.201172 43.210938 A 1 1 0 0 0 13.183594 42.335938 z M 65.619141 47.367188 A 1 1 0 0 0 64.724609 48.056641 A 1 1 0 0 0 65.365234 49.318359 A 1 1 0 0 0 66.625 48.677734 A 1 1 0 0 0 65.984375 47.416016 A 1 1 0 0 0 65.71875 47.367188 A 1 1 0 0 0 65.619141 47.367188 z M 14.353516 47.498047 A 1 1 0 0 0 14.058594 47.548828 A 1 1 0 0 0 13.423828 48.8125 A 1 1 0 0 0 14.6875 49.447266 A 1 1 0 0 0 15.322266 48.183594 A 1 1 0 0 0 14.353516 47.498047 z M 63.560547 52.205078 A 1 1 0 0 0 63.490234 52.207031 A 1 1 0 0 0 62.677734 52.716797 A 1 1 0 0 0 63.060547 54.078125 A 1 1 0 0 0 64.421875 53.695312 A 1 1 0 0 0 64.039062 52.333984 A 1 1 0 0 0 63.560547 52.205078 z M 16.505859 52.335938 A 1 1 0 0 0 16.029297 52.466797 A 1 1 0 0 0 15.652344 53.830078 A 1 1 0 0 0 17.015625 54.205078 A 1 1 0 0 0 17.392578 52.841797 A 1 1 0 0 0 16.505859 52.335938 z M 49.964844 52.878906 L 49.166016 53.28125 L 49.009766 54.164062 L 49.167969 54.478516 L 49.228516 54.558594 L 50.03125 54.957031 L 50.830078 54.554688 L 50.986328 53.671875 L 50.828125 53.357422 L 50.767578 53.277344 L 49.964844 52.878906 z M 30.269531 53.076172 L 29.378906 53.167969 L 29.119141 53.408203 L 29.058594 53.488281 L 28.896484 54.369141 L 29.503906 55.027344 L 30.394531 54.933594 L 30.654297 54.695312 L 30.714844 54.615234 L 30.876953 53.734375 L 30.269531 53.076172 z M 52.427734 56.15625 L 51.626953 56.558594 L 51.472656 57.441406 L 51.630859 57.755859 L 51.691406 57.835938 L 52.492188 58.236328 L 53.292969 57.832031 L 53.449219 56.949219 L 53.289062 56.634766 L 53.230469 56.554688 L 52.427734 56.15625 z M 27.794922 56.34375 L 26.902344 56.4375 L 26.644531 56.675781 L 26.583984 56.755859 L 26.419922 57.636719 L 27.027344 58.294922 L 27.917969 58.203125 L 28.177734 57.962891 L 28.238281 57.882812 L 28.402344 57.001953 L 27.794922 56.34375 z M 16.246094 59.923828 L 24.802734 60.917969 L 28.392578 68.75 C 23.64645 66.834074 19.484469 63.781588 16.246094 59.923828 z M 63.753906 59.923828 C 60.515531 63.781588 56.35355 66.834074 51.607422 68.75 L 55.197266 60.917969 L 63.753906 59.923828 z M 34.759766 65.480469 A 1 1 0 0 0 33.753906 66.285156 A 1 1 0 0 0 34.539062 67.460938 A 1 1 0 0 0 35.714844 66.675781 A 1 1 0 0 0 34.929688 65.5 A 1 1 0 0 0 34.759766 65.480469 z M 45.271484 65.482422 A 1 1 0 0 0 45.072266 65.5 A 1 1 0 0 0 44.287109 66.675781 A 1 1 0 0 0 45.462891 67.462891 A 1 1 0 0 0 46.25 66.287109 A 1 1 0 0 0 45.271484 65.482422 z M 40 66 A 1 1 0 0 0 39 67 A 1 1 0 0 0 40 68 A 1 1 0 0 0 41 67 A 1 1 0 0 0 40 66 z"/>
</svg>
